# Blender v2.74 (sub 0) OBJ File: ''
# www.blender.org
mtllib test.mtl
o Box
v 0.379996 1.505310 0.148191
v 0.092361 0.670388 -1.337355
v 1.008987 1.095858 0.256529
v 0.721352 0.260935 -1.229016
v -0.552987 -0.163858 -0.743529
v -0.265352 0.671065 0.742016
v 0.076004 -0.573310 -0.635191
v 0.363639 0.261612 0.850355
vt 0.000000 1.000000
vt 0.000000 0.000000
vt 1.000000 0.000000
vt 1.000000 1.000000
vn 0.533200 0.689200 -0.490600
vn -0.533200 -0.689200 0.490600
vn -0.829500 0.540000 -0.142900
vn 0.829500 -0.540000 0.142900
vn 0.166400 0.483100 0.859600
vn -0.166400 -0.483100 -0.859600
usemtl 4200ff
s 1
f 1/1/1 3/2/1 4/3/1 2/4/1
f 5/1/2 7/2/2 8/3/2 6/4/2
f 5/1/3 6/2/3 1/3/3 2/4/3
f 8/1/4 7/2/4 4/3/4 3/4/4
f 6/1/5 8/2/5 3/3/5 1/4/5
f 2/1/6 4/2/6 7/3/6 5/4/6
o Text
v 1.334900 0.638000 0.000000
v 1.334900 0.738000 0.000000
v 1.334900 0.638000 0.100000
v 1.334900 0.738000 0.100000
v 1.334900 0.638000 0.000000
v 1.334900 0.738000 0.000000
v 1.334900 0.638000 0.100000
v 1.334900 0.738000 0.100000
vt 0.738000 0.900000
vt 0.638000 1.000000
vt 0.738000 1.000000
vt 0.638000 0.900000
vn 1.000000 0.000000 0.000000
vn -1.000000 0.000000 0.000000
usemtl b0b0b0
s 1
f 12/5/7 9/6/7 10/7/7
f 12/5/7 11/8/7 9/6/7
f 14/7/8 13/6/8 16/5/8
f 13/6/8 15/8/8 16/5/8
